<svg width="342" height="342" viewBox="0 0 342 342" fill="none" xmlns="http://www.w3.org/2000/svg">
    <g clip-path="url(#clip0_5_45)">
        <g clip-path="url(#clip1_5_45)">
            <g clip-path="url(#clip2_5_45)">
                <g clip-path="url(#clip3_5_45)">
                    <g clip-path="url(#clip4_5_45)">
                        <path
                            d="M0.126038 169.232C0.126038 75.6633 76.6288 -0.189331 171 -0.189331C265.371 -0.189331 341.874 75.6633 341.874 169.232C341.874 262.801 265.371 338.654 171 338.654C76.6288 338.654 0.126038 262.801 0.126038 169.232ZM171 330.743C260.964 330.743 333.894 258.432 333.895 169.232C333.895 80.0324 260.964 7.72214 171 7.72214C81.0354 7.72214 8.10532 80.0332 8.10532 169.232C8.10532 258.432 81.0361 330.743 171 330.743Z"
                            fill="black" />
                        <path
                            d="M171 336.96C264.427 336.96 340.165 261.866 340.165 169.232C340.165 76.5991 264.427 1.50488 171 1.50488C77.5726 1.50488 1.83478 76.5991 1.83478 169.232C1.83478 261.866 77.5726 336.96 171 336.96Z"
                            fill="black" />
                        <g clip-path="url(#clip5_5_45)">
                            <g clip-path="url(#clip6_5_45)">
                                <path
                                    d="M265.128 157.601C259.94 150.001 251.199 145.508 241.943 145.723C244.613 139.999 245.177 133.593 243.509 127.425C241.625 120.448 237.112 114.618 230.805 111.011C226.662 108.637 221.953 107.384 217.189 107.384C210.007 107.384 203.187 110.212 198.155 115.053C195.477 102.915 184.549 93.8002 171.515 93.8002C158.48 93.8002 147.553 102.915 144.874 115.053C139.843 110.212 133.023 107.384 125.84 107.384C121.077 107.384 116.368 108.637 112.227 111.009C105.918 114.62 101.405 120.448 99.5205 127.425C97.8509 133.606 98.4206 140.031 101.105 145.762C100.571 145.731 100.034 145.716 99.4941 145.716C90.4214 145.716 81.9695 150.158 76.8889 157.601C72.8063 163.581 71.3178 170.779 72.695 177.871C74.0722 184.962 78.1548 191.096 84.1881 195.143L134.46 228.883C134.772 233.651 136.336 238.2 139.064 242.199C140.116 243.741 141.873 244.665 143.752 244.665H198.263C200.14 244.665 201.897 243.743 202.949 242.201C205.677 238.204 207.245 233.653 207.555 228.883L257.825 195.145C270.282 186.79 273.555 169.947 265.128 157.601ZM251.484 185.852L198.748 221.243C197.101 222.349 196.159 224.231 196.271 226.199C196.41 228.731 195.961 231.191 194.958 233.443H147.065C146.061 231.189 145.61 228.728 145.752 226.199C145.861 224.229 144.92 222.347 143.273 221.243L90.5346 185.851C87.0067 183.482 84.6183 179.895 83.8127 175.748C83.0071 171.601 83.8768 167.39 86.2634 163.894C89.2367 159.539 94.1833 156.941 99.496 156.941C102.681 156.941 105.763 157.88 108.406 159.655L108.87 159.968L142.744 210.607C143.833 212.235 145.633 213.118 147.466 213.118C148.54 213.118 149.627 212.817 150.589 212.182C153.194 210.469 153.905 206.988 152.177 204.405L119.235 155.153C119.111 154.64 118.928 154.135 118.651 153.66L112.049 142.324C109.919 138.667 109.353 134.408 110.455 130.328C111.557 126.249 114.196 122.839 117.887 120.727C120.313 119.339 123.063 118.604 125.84 118.604C131.53 118.604 136.83 121.634 139.673 126.513L143.916 133.798L156.998 201.904C157.514 204.594 159.888 206.466 162.552 206.466C162.903 206.466 163.259 206.432 163.616 206.365C166.685 205.783 168.7 202.846 168.117 199.801L155.46 133.903C155.524 133.563 155.566 133.217 155.566 132.859V120.832C155.566 112.111 162.72 105.018 171.515 105.018C180.31 105.018 187.464 112.111 187.464 120.832V129.03C187.349 129.331 187.247 129.638 187.185 129.966L173.769 199.799C173.185 202.845 175.201 205.781 178.271 206.363C178.627 206.43 178.986 206.464 179.335 206.464C181.999 206.464 184.372 204.59 184.889 201.902L197.461 136.462C197.669 136.215 197.859 135.951 198.025 135.667L203.357 126.513C206.2 121.634 211.499 118.602 217.189 118.602C219.968 118.602 222.719 119.337 225.147 120.727C228.835 122.837 231.475 126.247 232.576 130.327C233.68 134.406 233.112 138.666 230.982 142.324L225.564 151.629L190.266 204.397C188.538 206.98 189.249 210.461 191.854 212.175C192.816 212.809 193.903 213.11 194.977 213.11C196.81 213.11 198.61 212.227 199.699 210.6L233.882 159.498C236.472 157.833 239.449 156.935 242.526 156.935C247.837 156.935 252.784 159.534 255.755 163.886C260.683 171.112 258.766 180.963 251.484 185.852Z"
                                    fill="white" />
                            </g>
                        </g>
                    </g>
                </g>
            </g>
        </g>
    </g>
    <defs>
        <clipPath id="clip0_5_45">
            <rect width="342" height="342" fill="white" />
        </clipPath>
        <clipPath id="clip1_5_45">
            <rect width="341.748" height="467.988" fill="white"
                transform="translate(0.126038 -0.189331)" />
        </clipPath>
        <clipPath id="clip2_5_45">
            <rect width="341.748" height="467.988" fill="white"
                transform="translate(0.126038 -0.189331)" />
        </clipPath>
        <clipPath id="clip3_5_45">
            <rect width="341.748" height="338.844" fill="white"
                transform="translate(0.126038 -0.189331)" />
        </clipPath>
        <clipPath id="clip4_5_45">
            <rect width="341.748" height="338.844" fill="white"
                transform="translate(0.126038 -0.189331)" />
        </clipPath>
        <clipPath id="clip5_5_45">
            <rect width="197.61" height="150.865" fill="white"
                transform="translate(72.1948 93.8002)" />
        </clipPath>
        <clipPath id="clip6_5_45">
            <rect width="197.61" height="150.865" fill="white"
                transform="translate(72.1948 93.8002)" />
        </clipPath>
    </defs>
</svg>