<svg width="405" height="323" viewBox="0 0 405 323" fill="none" xmlns="http://www.w3.org/2000/svg">
<path d="M267.147 38.8821C449.023 136.033 445.974 153.259 281.619 266.115C222.922 333.638 121.275 341.381 54.5843 283.408C-12.106 225.435 -18.5853 123.7 40.1124 56.1756C98.81 -11.3483 200.457 -19.0909 267.147 38.8821Z" fill="#ECECEC"/>
<path d="M259.095 50.4321C321.825 104.963 328.766 199.684 274.598 261.998C220.429 324.312 125.664 330.621 62.933 276.09C0.20245 221.559 -6.73847 126.838 47.4301 64.5244C101.599 2.21057 196.364 -4.09873 259.095 50.4321Z" fill="#A43333"/>
<path d="M229.851 83.3113C274.033 121.718 278.715 188.67 240.308 232.853C201.901 277.035 134.949 281.717 90.7662 243.31C46.5839 204.903 41.9021 137.951 80.3093 93.7683C118.716 49.586 185.668 44.9042 229.851 83.3113Z" fill="black"/>
</svg>
